<svg id="Capa_1" enable-background="new 0 0 512.212 512.212" height="512" viewBox="0 0 512.212 512.212" width="512" xmlns="http://www.w3.org/2000/svg"><path d="m435.462 424.57c-.938-.317-1.356-.901-1.356-1.893v-119.467c0-29.679-8.849-58.364-25.589-82.952-13.978-20.531-32.648-37.076-54.446-48.406.672-3.087 1.035-6.288 1.035-9.573 0-13.764-6.218-26.097-15.985-34.358 1.979-2.803 3.966-5.6 5.917-8.332 20.819-29.154 42.348-59.3 37.261-93.21-1.957-13.047-7.608-21.416-16.798-24.873-16.665-6.269-33.675 8.125-51.688 23.366-7.466 6.316-21.327 18.043-26.359 18.84-3.396-.019-4.88-.268-9.505-15.229-2.205-7.134-4.705-15.22-9.637-22.05-2.518-3.488-6.258-5.558-10.211-6.077-1.765-.232-3.565-.152-5.309.235-3.456.771-6.656 2.746-8.892 5.842-4.932 6.831-7.432 14.916-9.637 22.05-4.625 14.961-6.109 15.211-9.505 15.229-5.038-.802-19.425-12.974-26.358-18.84-18.014-15.242-35.033-29.637-51.689-23.367-9.189 3.458-14.842 11.826-16.799 24.872-5.088 33.911 16.441 64.058 37.261 93.211 1.959 2.744 3.942 5.53 5.918 8.331-9.768 8.261-15.986 20.595-15.986 34.359 0 3.284.363 6.484 1.034 9.57-21.432 11.134-39.844 27.315-53.774 47.428-17.18 24.807-26.261 53.831-26.261 83.933v119.467c0 .992-.419 1.576-1.358 1.894-18.328 6.202-30.642 23.338-30.642 42.641 0 24.813 20.187 45 45 45h330c24.813 0 45-20.187 45-45 .002-19.302-12.312-36.438-30.642-42.641zm-248.356-262.292c0-8.271 6.729-15 15-15h108c8.271 0 15 6.729 15 15s-6.729 15-15 15h-108c-8.272 0-15-6.729-15-15zm-27.725-129.897c5.896 3.762 14.438 10.99 19.642 15.391 15.804 13.372 30.698 26.018 45.69 25.938 16.871-.071 25.94-8.956 31.393-18.921 5.453 9.965 14.522 18.851 31.393 18.921h.11c14.922 0 29.815-12.601 45.581-25.938 5.544-4.691 13.861-11.728 19.639-15.405 2.287 21.489-14.479 44.964-32.204 69.786-2.942 4.121-5.985 8.382-8.974 12.678-.547.786-.999 1.609-1.376 2.452-.057 0-.112-.004-.169-.004h-107.862c-3.543-5.147-7.138-10.197-10.657-15.125-17.721-24.815-34.482-48.288-32.206-69.773zm261.725 449.831h-330c-8.271 0-15-6.729-15-15 0-6.432 4.122-12.147 10.257-14.224 13.209-4.469 21.743-16.367 21.743-30.311v-119.467c0-44.621 26.146-86.005 65.936-105.793 7.701 6.163 17.456 9.861 28.064 9.861h108c10.608 0 20.364-3.698 28.065-9.862 40.288 19.909 65.935 60.644 65.935 105.793v119.467c0 13.945 8.535 25.843 21.742 30.311 6.136 2.076 10.258 7.792 10.258 14.224 0 8.272-6.729 15.001-15 15.001z"/><path d="m290.13 345.21c-8.973-6.537-19.711-10.221-30.096-13.783-1.8-.617-3.596-1.233-5.371-1.862-.156-.055-.314-.09-.47-.14-17.18-6.365-20.151-10.815-20.087-18.013.132-14.649 15.482-15.759 20.148-15.7 8.77.039 22.683 4.263 22.683 15.431 0 8.284 6.716 15 15 15s15-6.716 15-15c0-23.299-17.058-38.15-36.832-43.347v-12.584c0-8.284-6.716-15-15-15s-15 6.716-15 15v12.121c-7.127 1.696-13.651 4.69-19.072 8.837-10.786 8.251-16.797 20.672-16.925 34.973-.081 8.983 2.281 17.847 7.545 25.193 4.405 6.147 10.457 10.9 17.021 14.563 5.477 3.056 11.32 5.356 17.225 7.437 5.653 1.992 11.362 3.789 16.905 6.086 3.601 1.493 7.3 3.137 10.362 5.595 3.338 2.68 4.978 6.245 4.939 10.515-.13 14.518-15.177 15.7-20.018 15.7-.044 0-.088 0-.131 0-8.77-.039-22.683-4.263-22.683-15.431 0-8.284-6.716-15-15-15s-15 6.716-15 15c0 23.3 17.059 38.15 36.833 43.347v13.075c0 8.284 6.716 15 15 15s15-6.716 15-15v-12.612c7.126-1.696 13.65-4.69 19.071-8.837 10.786-8.251 16.797-20.672 16.925-34.974.134-14.831-5.913-26.806-17.972-35.59z"/></svg>